<svg width="60" height="60" xml:space="preserve" xmlns="http://www.w3.org/2000/svg"><path style="fill:#5392a4;fill-opacity:.996078;stroke-width:2.26091;stroke-miterlimit:4.9;stroke-opacity:.961497;paint-order:stroke markers fill" d="M49.186 86.892c-3.032-.437-5.83-1.802-7.01-3.421-1.104-1.515-1.694-9.533-2.154-29.236-.185-7.953-.534-14.582-.776-14.731-.246-.153-.19-.572.13-.957.436-.525.427-.855-.036-1.413-.536-.646 2.175-.729 23.914-.729 13.486 0 25.171-.13 25.967-.29 1.377-.275 1.475-.184 1.983 1.835.569 2.258.024 10.207-.926 13.507-.269.935-.619 4.257-.778 7.383l-.29 5.684 1.317.6c.992.452 1.25.847 1.049 1.6-.148.55-.272 1.163-.276 1.364-.004.2-.33.364-.725.364-1.193 0-1.388 2.268-.555 6.464 1.158 5.835 1.16 5.823-1.154 5.432-1.068-.18-1.942-.21-1.942-.064 0 .145.546 1.068 1.214 2.052 1.21 1.783 1.553 3.329.837 3.771-.208.128-1.682-.074-3.278-.449-3.929-.924-7.923-.87-19.391.265-13.524 1.338-14.263 1.38-17.12.969zm7.415-5.807c3.458-.262 10.853-.699 16.433-.97 5.58-.27 10.406-.71 10.725-.974 1.097-.91 2.82-8.22 2.18-9.254-.278-.45-3.189-.4-12.84.221l-12.482.803-2.735-1.252c-4.34-1.987-5.716-3.635-3.036-3.635 8.106-.199 5.955.975 13.8-.496.341-.343-.247-21.665-.612-22.222-.16-.243-1.221-.587-2.36-.764-2.58-.403-2.327-.95-5.251 11.343-1.24 5.208-2.526 9.758-2.861 10.112-.488.517-.56-1.635-.362-10.881l.246-11.526-5.33.305c-5.905.338-6.706.527-7.245 1.71-.64 1.4-.842 35.767-.219 36.933.65 1.213 2.22 1.285 11.95.547zm26.092-16.602c3.512-.766 3.753-1.18 2.976-5.112-.358-1.815-.843-5.997-1.077-9.293-.303-4.261-.623-6.118-1.11-6.426-.823-.52-8.223-.584-9.005-.077-.447.29-1.634 15.122-1.634 20.416 0 .808.355 1.034 1.82 1.162 2.325.203 5.086-.028 8.03-.67z" transform="translate(-35.521 -32.052)"/></svg>